# xmcd
# 
# Track frame offsets:
#     150
#     20447
#     36257
#     60927
#     74660
#     93107
#     112170
#     132042
#     155310
#     176210
# 
# Disc length: 2614
# 
# Revision: 2
# Processed by: cddbd v1.5.2PL0 Copyright (c) Steve Scherf et al.
# Submitted via: fre:ac v1.0.17
# 
DISCID=820a340a
DTITLE=Steve Earle - Copperhead Road
DYEAR=1988
DGENRE=Country
TTITLE0=Copperhead Road
TTITLE1=Snake Oil
TTITLE2=Back To The Wall
TTITLE3=The Devil's Right Hand
TTITLE4=Johnny Come Lately
TTITLE5=Even When I'm Blue
TTITLE6=You Belong To Me
TTITLE7=Waiting On You
TTITLE8=Once You Love
TTITLE9=Nothing But A Child
EXTD=YEAR: 1988
EXTT0=
EXTT1=
EXTT2=
EXTT3=
EXTT4=
EXTT5=
EXTT6=
EXTT7=
EXTT8=
EXTT9=
PLAYORDER=
